<svg width="41" height="71" viewBox="0 0 41 71" fill="none" xmlns="http://www.w3.org/2000/svg">
<path id="Vector" d="M22.5948 67.3664H19.8414C13.9526 67.3014 8.62473 64.5188 4.70572 60.0316L4.71137 60.0379L4.60028 59.9132L4.50805 59.7691C1.69564 55.4749 0 50.0147 0 44.087C0 42.5986 0.10684 41.1396 0.312077 39.7203L0.293853 39.8727C1.33459 32.8267 3.49636 26.5485 6.56508 21.0366L6.46727 21.2238C10.4 13.8847 14.8433 7.53448 19.8779 1.91479L19.9172 1.87122L21.6599 0L36.5297 26.1533C39.071 30.6377 40.5853 36.154 40.5853 42.0876C40.5853 48.7811 38.6584 54.9433 35.4238 59.8436L35.4648 59.779C32.4477 64.318 27.8372 67.2414 22.6446 67.3662L22.6274 67.3666L22.5948 67.3664ZM19.8848 62.5682H22.5623C26.4971 62.4676 29.9781 60.2593 32.2382 56.8649L32.2588 56.8328C34.9174 52.8022 36.5213 47.6677 36.5213 42.0911C36.5213 37.145 35.2596 32.5468 33.0954 28.7203L33.1423 28.8082L20.9471 7.37635C16.8616 12.2302 13.2136 17.6078 10.0844 23.4131L9.89009 23.7989C2.99308 37.1313 2.237 48.2024 7.64349 56.7048C10.8219 60.2878 15.1233 62.511 19.8643 62.5681H19.8739L19.8848 62.5682ZM23.2236 70.8211H19.1585V26.9976H23.2236V70.8211ZM19.7547 57.898L9.86314 46.2225L12.7357 42.8316L22.6272 54.5073L19.7547 57.898ZM22.6274 46.2225L19.7547 42.8316L27.1803 34.067L30.0529 37.4577L22.6274 46.2225Z" fill="#222222"/>
</svg>
