<svg width="36" height="36" viewBox="0 0 36 36" fill="none" xmlns="http://www.w3.org/2000/svg">
<path d="M19.5 32.9999H13.5C13.1022 32.9999 12.7206 32.8419 12.4393 32.5606C12.158 32.2793 12 31.8978 12 31.4999V22.1999H9C8.60218 22.1999 8.22064 22.0419 7.93934 21.7606C7.65804 21.4793 7.5 21.0978 7.5 20.6999V15.2999C7.5 14.9021 7.65804 14.5206 7.93934 14.2393C8.22064 13.958 8.60218 13.7999 9 13.7999H12V11.2499C12.1051 8.96446 13.1109 6.8136 14.7975 5.26761C16.484 3.72163 18.714 2.90632 21 2.99993H25.5C25.8978 2.99993 26.2794 3.15797 26.5607 3.43927C26.842 3.72058 27 4.10211 27 4.49993V9.89993C27 10.2978 26.842 10.6793 26.5607 10.9606C26.2794 11.2419 25.8978 11.3999 25.5 11.3999H21V13.7999H25.5C25.7316 13.7982 25.9605 13.8501 26.1687 13.9516C26.3769 14.0531 26.5587 14.2014 26.7 14.3849C26.8397 14.5712 26.9341 14.7875 26.9758 15.0166C27.0175 15.2457 27.0052 15.4814 26.94 15.7049L25.44 21.1049C25.3493 21.4294 25.1519 21.7138 24.8798 21.9125C24.6077 22.1111 24.2767 22.2124 23.94 22.1999H21V31.4999C21 31.8978 20.842 32.2793 20.5607 32.5606C20.2794 32.8419 19.8978 32.9999 19.5 32.9999ZM15 29.9999H18V20.6999C18 20.3021 18.158 19.9206 18.4393 19.6393C18.7206 19.358 19.1022 19.1999 19.5 19.1999H22.86L23.52 16.7999H19.5C19.1022 16.7999 18.7206 16.6419 18.4393 16.3606C18.158 16.0793 18 15.6978 18 15.2999V11.2499C18.0385 10.4806 18.3715 9.7555 18.93 9.22493C19.4885 8.69437 20.2297 8.39897 21 8.39993H24V5.99993H21C19.5102 5.90917 18.0447 6.40948 16.9215 7.39233C15.7982 8.37518 15.1078 9.76128 15 11.2499V15.2999C15 15.6978 14.842 16.0793 14.5607 16.3606C14.2794 16.6419 13.8978 16.7999 13.5 16.7999H10.5V19.1999H13.5C13.8978 19.1999 14.2794 19.358 14.5607 19.6393C14.842 19.9206 15 20.3021 15 20.6999V29.9999Z" fill="#222222"/>
</svg>
