<svg width="43" height="59" viewBox="0 0 43 59" fill="none" xmlns="http://www.w3.org/2000/svg">
<g id="&#240;&#159;&#166;&#134; icon &#34;dna&#34;">
<path id="Vector" d="M13.925 34.0894C13.4412 33.5725 12.7723 33.2682 12.0647 33.2431C11.3571 33.218 10.6684 33.4742 10.1492 33.9556C6.98303 36.7444 4.44211 40.171 2.69304 44.0107C0.943961 47.8503 0.026224 52.0163 0 56.2355C0 56.9458 0.282134 57.6269 0.784334 58.1291C1.28653 58.6313 1.96766 58.9134 2.67788 58.9134C3.3881 58.9134 4.06923 58.6313 4.57143 58.1291C5.07363 57.6269 5.35577 56.9458 5.35577 56.2355C5.37415 52.7497 6.13611 49.3079 7.59075 46.14C9.0454 42.9721 11.1592 40.1511 13.7911 37.8653C14.308 37.3814 14.6124 36.7126 14.6374 36.005C14.6625 35.2974 14.4064 34.6087 13.925 34.0894ZM41.1591 46.5148C40.1615 43.6286 38.7156 40.9175 36.8745 38.4812C34.1195 34.912 30.7563 31.857 26.9395 29.4567C32.938 25.6273 42.8461 17.1385 42.8461 2.67788C42.8461 1.96766 42.564 1.28653 42.0618 0.784334C41.5596 0.282133 40.8785 0 40.1682 0C39.458 0 38.7769 0.282133 38.2747 0.784334C37.7725 1.28653 37.4904 1.96766 37.4904 2.67788C37.4904 17.1385 25.1989 24.5562 21.4231 26.4843C18.8235 25.0988 16.4042 23.399 14.2196 21.4231H21.4231C22.1333 21.4231 22.8144 21.1409 23.3166 20.6387C23.8188 20.1365 24.1009 19.4554 24.1009 18.7452C24.1009 18.035 23.8188 17.3538 23.3166 16.8516C22.8144 16.3494 22.1333 16.0673 21.4231 16.0673H9.50649C8.40372 14.3951 7.50472 12.5971 6.8286 10.7115H29.4567C30.1669 10.7115 30.8481 10.4294 31.3503 9.9272C31.8525 9.425 32.1346 8.74387 32.1346 8.03365C32.1346 7.32343 31.8525 6.6423 31.3503 6.1401C30.8481 5.6379 30.1669 5.35577 29.4567 5.35577H5.51644C5.40795 4.46728 5.35429 3.57296 5.35577 2.67788C5.35577 1.96766 5.07363 1.28653 4.57143 0.784334C4.06923 0.282133 3.3881 0 2.67788 0C1.96766 0 1.28653 0.282133 0.784334 0.784334C0.282134 1.28653 0 1.96766 0 2.67788C0 22.9495 19.5485 31.5722 20.3787 31.9204C23.3913 33.3679 26.1784 35.2441 28.6533 37.4904H21.4231C20.7128 37.4904 20.0317 37.7725 19.5295 38.2747C19.0273 38.7769 18.7452 39.458 18.7452 40.1682C18.7452 40.8785 19.0273 41.5596 19.5295 42.0618C20.0317 42.564 20.7128 42.8461 21.4231 42.8461H33.2861C34.3962 44.5141 35.2957 46.313 35.964 48.2019H13.3894C12.6792 48.2019 11.9981 48.484 11.4959 48.9862C10.9937 49.4884 10.7115 50.1696 10.7115 50.8798C10.7115 51.59 10.9937 52.2711 11.4959 52.7733C11.9981 53.2755 12.6792 53.5577 13.3894 53.5577H37.3297C37.4374 54.4462 37.491 55.3405 37.4904 56.2355C37.4904 56.9458 37.7725 57.6269 38.2747 58.1291C38.7769 58.6313 39.458 58.9134 40.1682 58.9134C40.8785 58.9134 41.5596 58.6313 42.0618 58.1291C42.564 57.6269 42.8461 56.9458 42.8461 56.2355C42.8557 54.2654 42.6583 52.2998 42.257 50.371C41.996 49.058 41.6289 47.7684 41.1591 46.5148Z" fill="#222222"/>
</g>
</svg>
