<svg width="65" height="65" viewBox="0 0 65 65" fill="none" xmlns="http://www.w3.org/2000/svg">
<g id="&#240;&#159;&#166;&#134; icon &#34;mathematics&#34;">
<path id="Vector" d="M9.01956 2H55.9664C57.8281 2 59.6136 2.73956 60.93 4.05598C62.2464 5.37241 62.986 7.15786 62.986 9.01956V55.9804C62.986 57.8421 62.2464 59.6276 60.93 60.944C59.6136 62.2604 57.8281 63 55.9664 63H9.01956C7.15786 63 5.37241 62.2604 4.05598 60.944C2.73956 59.6276 2 57.8421 2 55.9804V9.01956C2 7.15786 2.73956 5.37241 4.05598 4.05598C5.37241 2.73956 7.15786 2 9.01956 2Z" stroke="#222222" stroke-width="4" stroke-linecap="round"/>
<path id="Vector_2" d="M17.3868 11.9257V23.6483" stroke="#222222" stroke-width="4" stroke-linecap="round"/>
<path id="Vector_3" d="M11.5326 17.78H23.2553" stroke="#222222" stroke-width="4" stroke-linecap="round"/>
<path id="Vector_4" d="M12.5715 43.1206L21.9918 52.5409" stroke="#222222" stroke-width="4" stroke-linecap="round"/>
<path id="Vector_5" d="M12.5715 52.5409L21.9918 43.1206" stroke="#222222" stroke-width="4" stroke-linecap="round"/>
<path id="Vector_6" d="M41.2533 17.78H54.5624" stroke="#222222" stroke-width="4" stroke-linecap="round"/>
<path id="Vector_7" d="M41.1691 43.1206H54.4782" stroke="#222222" stroke-width="4" stroke-linecap="round"/>
<path id="Vector_8" d="M41.1691 51.3335H54.4782" stroke="#222222" stroke-width="4" stroke-linecap="round"/>
<path id="Vector_9" d="M32.507 2V63" stroke="#222222" stroke-width="4" stroke-linecap="round"/>
<path id="Vector_10" d="M2 32.4929H63" stroke="#222222" stroke-width="4" stroke-linecap="round"/>
</g>
</svg>
