<svg width="60" height="60" viewBox="0 0 60 60" fill="none" xmlns="http://www.w3.org/2000/svg">
<g id="&#240;&#159;&#166;&#134; icon &#34;brain&#34;">
<path id="Vector" d="M22.4166 0.00259679C22.5922 0.00259679 22.7705 0.00259681 22.9488 0.0185815C25.3336 0.0275837 27.4898 0.999243 29.0503 2.56499L29.0506 2.56522C30.6344 4.18532 31.6551 6.36172 31.793 8.77442L31.7942 8.8001V52.0422C31.7896 55.9349 28.6352 59.0894 24.7428 59.0939H24.7424C21.5593 59.091 18.8693 56.9836 17.9884 54.088L17.9753 54.0379C15.1422 53.9313 12.6068 52.7387 10.7569 50.867L10.7559 50.8659C8.78983 48.9306 7.56957 46.2428 7.56259 43.2699V42.6513C4.8587 41.3131 2.71976 39.1767 1.4134 36.5529L1.37832 36.475C0.509431 34.7914 0 32.8005 0 30.6906C0 29.1545 0.270066 27.6814 0.765301 26.3163L0.737025 26.4056C1.57723 23.7629 3.20582 21.5703 5.34314 20.0444L5.38054 20.019C5.24476 19.4107 5.16454 18.7104 5.1597 17.9922V17.9886C5.15895 17.9411 5.15854 17.8849 5.15854 17.8287C5.15854 12.9038 8.49651 8.75849 13.0336 7.53189L13.1082 7.51458C13.5684 5.56901 14.5625 3.90129 15.9263 2.62321L15.9316 2.61825C17.6105 1.00917 19.8895 0.0146574 22.4008 0.00242366H22.4032L22.4166 0.00259679ZM27.8052 9.00225C27.7722 6.28208 25.5961 4.08088 22.889 4.00753L22.8822 4.00736H22.4165C19.4669 4.08659 17.0824 6.39998 16.8904 9.31242L16.8895 9.32944L16.7858 10.9925L15.1306 11.1868C11.7623 11.584 9.17415 14.4223 9.17415 17.865C9.17415 17.9075 9.1745 17.9498 9.17531 17.9922L9.17513 17.9859C9.20012 18.816 9.35604 19.6019 9.62282 20.3345L9.6062 20.2823L10.1384 21.855L8.6908 22.6533C6.73946 23.7086 5.2717 25.448 4.59365 27.5427L4.5768 27.6029L4.53953 27.712C4.21464 28.5968 4.02669 29.6186 4.02669 30.6842C4.02669 32.1526 4.38343 33.5376 5.0152 34.7573L4.99189 34.7079C6.10129 36.9674 8.03278 38.6807 10.3867 39.4785L10.4523 39.4978L12.677 40.2057L11.6446 42.2706C11.6003 42.5169 11.575 42.8003 11.575 43.0897C11.575 43.1497 11.5762 43.2096 11.5783 43.2692L11.5781 43.2605C11.6283 46.9878 14.6365 49.996 18.359 50.0462H21.6901V52.042C21.6945 53.7304 23.0619 55.0978 24.7498 55.1023H24.7502C26.4385 55.0978 27.8059 53.7304 27.8104 52.0426V52.042L27.8052 9.00225ZM15.5856 28.4892C9.76587 28.1285 5.18272 23.3204 5.18272 17.4419C5.18272 17.3122 5.18503 17.1831 5.18936 17.0546L5.18878 17.0732C5.36779 14.2616 6.57385 11.7618 8.43188 9.91839L8.43263 9.9177C10.275 8.06111 12.7718 6.85626 15.5479 6.67818L15.5802 6.67645L15.8144 10.668C12.2461 10.9197 9.41346 13.7524 9.16307 17.2979L9.1618 17.3207C9.16123 17.3531 9.161 17.3914 9.161 17.4297C9.161 21.1893 12.0789 24.2675 15.7736 24.523L15.7958 24.5242L15.5856 28.4892ZM31.7968 44.325H27.8052C27.8006 39.8444 24.1697 36.2134 19.6894 36.2088H19.6891V32.2173C26.3729 32.2248 31.7893 37.6411 31.7968 44.3243L31.7968 44.325ZM22.0839 18.3798V14.3883C25.2425 14.3853 27.8022 11.8255 27.8052 8.66726V8.66703H31.7967C31.7906 14.0289 27.4456 18.3738 22.0844 18.3799H22.0838L22.0839 18.3798ZM37.1854 0.00265446C39.6933 0.0161 41.9669 1.00715 43.6473 2.61387L43.6438 2.6104C45.0128 3.89345 46.007 5.56116 46.4539 7.44089L46.4672 7.50679C51.0789 8.75053 54.4168 12.8958 54.4168 17.8208C54.4168 17.877 54.4164 17.9331 54.4156 17.9891L54.4157 17.9807C54.4107 18.7025 54.3306 19.4028 54.1825 20.0776L54.1948 20.0111C56.3696 21.5623 57.9982 23.7549 58.8143 26.3105L58.8383 26.3976C59.3053 27.6735 59.5753 29.1466 59.5753 30.6827C59.5753 32.7926 59.0659 34.7835 58.1634 36.5391L58.197 36.4669C56.8555 39.1687 54.7166 41.305 52.091 42.6082L52.0128 42.6434V43.2606C52.0096 46.2331 50.794 48.9209 48.8339 50.8569L48.8328 50.858C46.982 52.7307 44.4465 53.9234 41.633 54.0293L41.6134 54.0299C40.7195 56.9754 38.0295 59.0829 34.8468 59.0859H34.8464C30.9536 59.0812 27.7991 55.9268 27.7947 52.0345V8.79214C27.931 6.34977 28.9522 4.16928 30.5399 2.54485L30.5381 2.5467C32.099 0.980892 34.2551 0.00934843 36.6381 0H36.6398L37.1854 0.00265446ZM47.9626 42.268L46.9301 40.2031L49.1547 39.4952C51.5743 38.6782 53.5058 36.9649 54.5909 34.76L54.6153 34.7052C55.2237 33.5349 55.5805 32.15 55.5805 30.6816C55.5805 29.6159 55.3926 28.5942 55.0481 27.6477L55.0677 27.7093L55.0304 27.6002C54.3355 25.4452 52.8678 23.7059 50.9614 22.6729L50.9164 22.6507L49.4688 21.8523L50.001 20.2797C50.2511 19.5991 50.4071 18.8132 50.4319 17.9944L50.4321 17.9831C50.4328 17.9472 50.4333 17.9048 50.4333 17.8622C50.4333 14.4195 47.8451 11.5813 44.5084 11.1872L44.4767 11.1841L42.8216 10.9899L42.7177 9.32679C42.5248 6.39727 40.1403 4.08388 37.1984 4.00476L37.1907 4.00459H36.7251C34.0111 4.07811 31.8351 6.27926 31.8021 8.99619V52.0421C31.8066 53.7303 33.174 55.0977 34.8618 55.1023H34.8623C36.5506 55.0978 37.918 53.7304 37.9225 52.0425V50.0462H41.2488C44.9761 49.996 47.9843 46.9878 48.0345 43.2653V43.2605C48.0359 43.2172 48.0367 43.1662 48.0367 43.1151C48.0367 42.8166 48.0098 42.5245 47.9582 42.2409L47.9627 42.2706L47.9626 42.268ZM43.7502 28.4892L43.5293 24.4976C47.2463 24.241 50.1643 21.1629 50.1643 17.4032C50.1643 17.362 50.1639 17.321 50.1632 17.28V17.2862C49.9037 13.7252 47.0737 10.9015 43.5333 10.6534L43.5107 10.6522L43.7449 6.6607C46.5534 6.84039 49.0501 8.04519 50.8918 9.90108L50.8924 9.90177C52.749 11.7441 53.9539 14.2409 54.132 17.017L54.1336 17.0493C54.1381 17.1666 54.1405 17.3043 54.1405 17.4426C54.1405 23.3168 49.5642 28.122 43.7823 28.4876L43.7502 28.4892V28.4892ZM31.7968 44.325H27.8052C27.8127 37.6411 33.229 32.2248 39.9123 32.2173H39.913V36.2088C35.4324 36.2134 31.8013 39.8443 31.7968 44.3246V44.325ZM37.518 18.3798C32.1562 18.3738 27.8112 14.0288 27.8052 8.66755V8.66703H31.7967C31.7996 11.8255 34.3594 14.3851 37.5176 14.3882H37.5179L37.518 18.3798Z" fill="black"/>
</g>
</svg>
