<svg width="56" height="66" viewBox="0 0 56 66" fill="none" xmlns="http://www.w3.org/2000/svg">
<g id="&#240;&#159;&#166;&#134; icon &#34;flask&#34;">
<path id="Vector" d="M54.4418 50.7167L37.7108 22.0351V6.54831H40.985C41.8533 6.54831 42.6861 6.20336 43.3002 5.58933C43.9142 4.97531 44.2591 4.14252 44.2591 3.27416C44.2591 2.4058 43.9142 1.573 43.3002 0.958978C42.6861 0.344955 41.8533 0 40.985 0H14.7917C13.9234 0 13.0906 0.344955 12.4766 0.958978C11.8625 1.573 11.5176 2.4058 11.5176 3.27416C11.5176 4.14252 11.8625 4.97531 12.4766 5.58933C13.0906 6.20336 13.9234 6.54831 14.7917 6.54831H18.0659V22.0351L1.33495 50.7167C0.465804 52.2088 0.00536496 53.9036 4.66009e-05 55.6304C-0.00527175 57.3572 0.444718 59.0548 1.30466 60.5522C2.1646 62.0497 3.40409 63.2939 4.8982 64.1596C6.39231 65.0253 8.08823 65.4818 9.81501 65.4831H45.8307C47.5575 65.4818 49.2534 65.0253 50.7475 64.1596C52.2416 63.2939 53.4811 62.0497 54.3411 60.5522C55.201 59.0548 55.651 57.3572 55.6457 55.6304C55.6404 53.9036 55.1799 52.2088 54.3108 50.7167H54.4418ZM24.1558 24.5234C24.4446 24.0372 24.6025 23.4845 24.6142 22.9191V6.54831H31.1625V22.9191C31.1685 23.4956 31.3266 24.0604 31.6209 24.5562L34.4367 29.4674H21.34L24.1558 24.5234ZM48.7775 57.265C48.4918 57.7598 48.0816 58.1713 47.5876 58.4585C47.0936 58.7457 46.5331 58.8986 45.9617 58.9021H9.94598C9.37459 58.8986 8.81406 58.7457 8.32008 58.4585C7.82611 58.1713 7.41589 57.7598 7.1302 57.265C6.84284 56.7672 6.69155 56.2026 6.69155 55.6279C6.69155 55.0532 6.84284 54.4886 7.1302 53.9908L17.5093 36.0157H38.3002L48.7775 54.0236C49.0648 54.5213 49.2161 55.0859 49.2161 55.6606C49.2161 56.2354 49.0648 56.8 48.7775 57.2977V57.265ZM21.34 42.564C20.6925 42.564 20.0594 42.756 19.521 43.1158C18.9826 43.4756 18.5629 43.9869 18.3151 44.5852C18.0673 45.1835 18.0025 45.8418 18.1288 46.4769C18.2551 47.1121 18.567 47.6955 19.0249 48.1534C19.4828 48.6113 20.0662 48.9231 20.7013 49.0494C21.3364 49.1758 21.9947 49.1109 22.593 48.8631C23.1913 48.6153 23.7026 48.1956 24.0624 47.6572C24.4222 47.1188 24.6142 46.4857 24.6142 45.8382C24.6142 44.9698 24.2692 44.137 23.6552 43.523C23.0412 42.909 22.2084 42.564 21.34 42.564ZM34.4367 45.8382C33.7891 45.8382 33.1561 46.0302 32.6176 46.39C32.0792 46.7497 31.6595 47.2611 31.4117 47.8594C31.1639 48.4576 31.0991 49.116 31.2254 49.7511C31.3517 50.3862 31.6636 50.9696 32.1215 51.4275C32.5794 51.8854 33.1628 52.1972 33.7979 52.3236C34.433 52.4499 35.0914 52.3851 35.6896 52.1373C36.2879 51.8894 36.7993 51.4698 37.159 50.9314C37.5188 50.3929 37.7108 49.7599 37.7108 49.1123C37.7108 48.244 37.3659 47.4112 36.7518 46.7972C36.1378 46.1831 35.305 45.8382 34.4367 45.8382Z" fill="#222222"/>
</g>
</svg>
