<svg width="24" height="29" viewBox="0 0 24 29" fill="none" xmlns="http://www.w3.org/2000/svg">
<g id="&#240;&#159;&#166;&#134; icon &#34;search&#34;">
<path id="Vector" d="M23.6322 25.4849L18.1915 19.063C19.5014 17.0048 20.2085 14.4994 20.2061 11.9251C20.2061 5.34966 15.6738 0 10.103 0C4.53226 0 0 5.34966 0 11.9251C0 18.5006 4.53226 23.8503 10.103 23.8503C12.284 23.8531 14.4065 23.0185 16.1503 21.4724L21.591 27.8943C21.8664 28.1849 22.2256 28.34 22.5948 28.3278C22.9641 28.3156 23.3154 28.137 23.5766 27.8287C23.8378 27.5204 23.9891 27.1057 23.9994 26.6699C24.0098 26.234 23.8783 25.81 23.6322 25.4849ZM2.88658 11.9251C2.88658 10.2404 3.30982 8.59359 4.10277 7.19282C4.89573 5.79205 6.02279 4.70028 7.34142 4.05557C8.66006 3.41087 10.111 3.24219 11.5109 3.57085C12.9108 3.89952 14.1966 4.71078 15.2058 5.90203C16.2151 7.09329 16.9024 8.61105 17.1808 10.2634C17.4593 11.9157 17.3164 13.6284 16.7702 15.1848C16.224 16.7413 15.299 18.0716 14.1123 19.0076C12.9255 19.9435 11.5303 20.4431 10.103 20.4431C8.18982 20.4404 6.35562 19.5421 5.00277 17.9453C3.64992 16.3484 2.88888 14.1834 2.88658 11.9251Z" fill="#696060"/>
</g>
</svg>
