<svg width="75" height="75" viewBox="0 0 75 75" fill="none" xmlns="http://www.w3.org/2000/svg">
<g id="&#240;&#159;&#166;&#134; icon &#34;Bot&#34;">
<path id="Vector" d="M42.0021 23.3345H46.669V28.0014H42.0021V23.3345Z" fill="#222222"/>
<path id="Vector_2" d="M28.0013 23.3345H32.6682V28.0014H28.0013V23.3345Z" fill="#222222"/>
<path id="Vector_3" d="M60.3359 42.0021H48.6686V37.3352H51.0021C52.2394 37.3338 53.4256 36.8416 54.3005 35.9667C55.1754 35.0918 55.6675 33.9056 55.669 32.6683V23.3345H60.3359V18.6676H55.669V14.0007C55.6675 12.7634 55.1754 11.5772 54.3005 10.7023C53.4256 9.82736 52.2394 9.33521 51.0021 9.33379H46.3352V0H41.6683V9.33379H32.3345V0H27.6676V9.33379H23.0007C21.7634 9.33521 20.5772 9.82736 19.7023 10.7023C18.8274 11.5772 18.3352 12.7634 18.3338 14.0007V18.6676H13.6669V23.3345H18.3338V32.6683C18.3352 33.9056 18.8274 35.0918 19.7023 35.9667C20.5772 36.8416 21.7634 37.3338 23.0007 37.3352H25.3341V42.0021H13.6669C12.4296 42.0035 11.2434 42.4956 10.3685 43.3705C9.49357 44.2454 9.00142 45.4317 9 46.669V65.3366H13.6669V46.669H60.3359V65.3366H65.0028V46.669C65.0013 45.4317 64.5092 44.2454 63.6343 43.3705C62.7594 42.4956 61.5732 42.0035 60.3359 42.0021ZM23.0007 14.0007H51.0021V32.6683H23.0007V14.0007ZM30.001 37.3352H44.0017V42.0021H30.001V37.3352Z" fill="#222222"/>
</g>
</svg>
