<svg width="61" height="52" viewBox="0 0 61 52" fill="none" xmlns="http://www.w3.org/2000/svg">
<g id="&#240;&#159;&#166;&#134; icon &#34;bag&#34;">
<path id="Vector" d="M51.5667 8.5958H42.4667V5.73053C42.4667 4.2107 41.8275 2.75312 40.6898 1.67843C39.5521 0.60375 38.009 0 36.4 0H24.2667C22.6577 0 21.1146 0.60375 19.9769 1.67843C18.8392 2.75312 18.2 4.2107 18.2 5.73053V8.5958H9.1C6.68653 8.5958 4.37191 9.50142 2.66533 11.1134C0.958748 12.7255 0 14.9118 0 17.1916V42.979C0 45.2587 0.958748 47.4451 2.66533 49.0571C4.37191 50.6692 6.68653 51.5748 9.1 51.5748H51.5667C53.9801 51.5748 56.2948 50.6692 58.0013 49.0571C59.7079 47.4451 60.6667 45.2587 60.6667 42.979V17.1916C60.6667 14.9118 59.7079 12.7255 58.0013 11.1134C56.2948 9.50142 53.9801 8.5958 51.5667 8.5958ZM24.2667 5.73053H36.4V8.5958H24.2667V5.73053ZM54.6 42.979C54.6 43.7389 54.2804 44.4677 53.7116 45.005C53.1427 45.5424 52.3712 45.8442 51.5667 45.8442H9.1C8.29551 45.8442 7.52397 45.5424 6.95511 45.005C6.38625 44.4677 6.06667 43.7389 6.06667 42.979V26.9048L20.2627 31.5179C20.5847 31.5592 20.9113 31.5592 21.2333 31.5179H39.4333C39.7623 31.5122 40.0889 31.464 40.404 31.3747L54.6 26.9048V42.979ZM54.6 20.8591L38.948 25.7874H21.7187L6.06667 20.8591V17.1916C6.06667 16.4317 6.38625 15.7029 6.95511 15.1655C7.52397 14.6282 8.29551 14.3263 9.1 14.3263H51.5667C52.3712 14.3263 53.1427 14.6282 53.7116 15.1655C54.2804 15.7029 54.6 16.4317 54.6 17.1916V20.8591Z" fill="#222222"/>
</g>
</svg>
