<svg width="61" height="55" viewBox="0 0 61 55" fill="none" xmlns="http://www.w3.org/2000/svg">
<g id="&#240;&#159;&#166;&#134; icon &#34;Desktop&#34;">
<path id="Vector" d="M55.7527 0H5.06842C2.27023 0 0 2.27023 0 5.06842V38.8579C0 41.6561 2.27023 43.9263 5.06842 43.9263H25.3421L23.6526 48.9948H16.05C14.6456 48.9948 13.5158 50.1246 13.5158 51.529C13.5158 52.9334 14.6456 54.0632 16.05 54.0632H44.7711C46.1755 54.0632 47.3053 52.9334 47.3053 51.529C47.3053 50.1246 46.1755 48.9948 44.7711 48.9948H37.1684L35.479 43.9263H55.7527C58.5509 43.9263 60.8211 41.6561 60.8211 38.8579V5.06842C60.8211 2.27023 58.5509 0 55.7527 0ZM54.0632 37.1684H6.7579V6.7579H54.0632V37.1684Z" fill="black"/>
</g>
</svg>
