<svg width="21" height="28" viewBox="0 0 21 28" fill="none" xmlns="http://www.w3.org/2000/svg">
    <g id="&#240;&#159;&#166;&#134; icon &#34;person icon&#34;">
        <g id="Group">
            <path id="Vector"
                d="M10.4998 13.8377C13.5032 13.8377 15.9379 10.9638 15.9379 7.41883C15.9379 3.87381 13.5032 1 10.4998 1C7.49647 1 5.06177 3.87381 5.06177 7.41883C5.06177 10.9638 7.49647 13.8377 10.4998 13.8377Z"
                stroke="white" stroke-width="2" />
            <path id="Vector_2"
                d="M15.9381 16.4052H16.3206C17.966 16.4052 19.354 17.8515 19.5582 19.7788L19.9829 23.7893C20.1452 25.3217 19.1328 26.6753 17.8244 26.6753H3.17554C1.86715 26.6753 0.854835 25.3217 1.01712 23.7893L1.44183 19.7788C1.64593 17.8515 3.03395 16.4052 4.67948 16.4052H5.06194"
                stroke="white" stroke-width="2" stroke-linecap="round" stroke-linejoin="round" />
        </g>
    </g>
</svg>