<svg width="36" height="36" viewBox="0 0 36 36" fill="none" xmlns="http://www.w3.org/2000/svg">
<path fill-rule="evenodd" clip-rule="evenodd" d="M10.4833 0.107023C12.3859 0.0198155 12.9924 0 17.8372 0C22.6829 0 23.2884 0.0208046 25.19 0.107023C27.0897 0.193242 28.3869 0.495485 29.5215 0.936452C30.7116 1.38451 31.7896 2.08653 32.6806 2.99368C33.5879 3.88461 34.29 4.96273 34.7379 6.15284C35.1788 7.28748 35.4801 8.58465 35.5673 10.4833C35.6546 12.3859 35.6744 12.9924 35.6744 17.8372C35.6744 22.6819 35.6536 23.2884 35.5673 25.1911C35.4811 27.0897 35.1788 28.3869 34.7379 29.5215C34.2821 30.6939 33.6716 31.6897 32.6806 32.6806C31.7898 33.5879 30.7116 34.29 29.5215 34.7379C28.3869 35.1788 27.0897 35.4801 25.1911 35.5673C23.2884 35.6546 22.6819 35.6744 17.8372 35.6744C12.9924 35.6744 12.3859 35.6536 10.4833 35.5673C8.58465 35.4811 7.28748 35.1788 6.15284 34.7379C4.98053 34.2821 3.98463 33.6716 2.99368 32.6806C2.08637 31.7898 1.3843 30.7116 0.936452 29.5215C0.495485 28.3869 0.194231 27.0897 0.107023 25.1911C0.0198155 23.2884 0 22.6829 0 17.8372C0 12.9914 0.0208046 12.3859 0.107023 10.4843C0.193242 8.58465 0.495485 7.28748 0.936452 6.15284C1.38451 4.96281 2.08653 3.88474 2.99368 2.99368C3.8846 2.08637 4.96271 1.3843 6.15284 0.936452C7.28748 0.495485 8.58465 0.194231 10.4833 0.107023ZM25.0454 3.31772C23.1645 3.23249 22.5997 3.21366 17.8372 3.21366C13.0747 3.21366 12.5098 3.23249 10.629 3.31772C8.88986 3.39699 7.94548 3.68734 7.3172 3.93211C6.48481 4.25516 5.89023 4.64162 5.26593 5.26593C4.64263 5.89023 4.25516 6.48481 3.93211 7.3172C3.68734 7.94548 3.39699 8.88986 3.31772 10.629C3.23249 12.5098 3.21366 13.0747 3.21366 17.8372C3.21366 22.5997 3.23249 23.1645 3.31772 25.0454C3.39699 26.7845 3.68734 27.7289 3.93211 28.3572C4.21786 29.132 4.67365 29.8329 5.26593 30.4085C5.84142 31.0007 6.54237 31.4565 7.3172 31.7422C7.94548 31.9871 8.88986 32.2774 10.629 32.3567C12.5098 32.4419 13.0737 32.4608 17.8372 32.4608C22.6007 32.4608 23.1645 32.4419 25.0454 32.3567C26.7845 32.2774 27.7289 31.9871 28.3572 31.7422C29.1896 31.4192 29.7842 31.0328 30.4085 30.4085C31.0007 29.833 31.4565 29.132 31.7422 28.3572C31.9871 27.7289 32.2774 26.7845 32.3567 25.0454C32.4419 23.1645 32.4608 22.5997 32.4608 17.8372C32.4608 13.0747 32.4419 12.5098 32.3567 10.629C32.2774 8.88986 31.9871 7.94548 31.7422 7.3172C31.4192 6.48481 31.0328 5.89023 30.4085 5.26593C29.7842 4.64263 29.1896 4.25516 28.3572 3.93211C27.7289 3.68734 26.7845 3.39699 25.0454 3.31772ZM15.5597 23.3357C16.2818 23.6349 17.0556 23.7888 17.8372 23.7888C19.4158 23.7888 20.9295 23.1617 22.0456 22.0456C23.1619 20.9295 23.789 19.4156 23.789 17.8372C23.789 16.2588 23.1619 14.7449 22.0456 13.6287C20.9295 12.5126 19.4158 11.8855 17.8372 11.8855C17.0556 11.8855 16.2818 12.0395 15.5597 12.3385C14.8375 12.6376 14.1814 13.076 13.6288 13.6287C13.0761 14.1814 12.6377 14.8375 12.3386 15.5595C12.0395 16.2816 11.8856 17.0556 11.8856 17.8372C11.8856 18.6188 12.0395 19.3927 12.3386 20.1148C12.6377 20.8369 13.0761 21.493 13.6288 22.0456C14.1814 22.5983 14.8375 23.0367 15.5597 23.3357ZM11.3543 11.3542C13.0737 9.6348 15.4057 8.66886 17.8372 8.66886C20.2689 8.66886 22.6008 9.6348 24.3202 11.3542C26.0395 13.0736 27.0055 15.4057 27.0055 17.8372C27.0055 20.2687 26.0395 22.6007 24.3202 24.3202C22.6008 26.0395 20.2689 27.0055 17.8372 27.0055C15.4057 27.0055 13.0737 26.0395 11.3543 24.3202C9.63487 22.6007 8.66892 20.2687 8.66892 17.8372C8.66892 15.4057 9.63487 13.0736 11.3543 11.3542ZM29.0384 10.0348C29.4448 9.6284 29.6731 9.07716 29.6731 8.50239C29.6731 7.92759 29.4448 7.37636 29.0384 6.96993C28.6319 6.5635 28.0808 6.33517 27.5059 6.33517C26.9312 6.33517 26.3799 6.5635 25.9735 6.96993C25.567 7.37636 25.3387 7.92759 25.3387 8.50239C25.3387 9.07716 25.567 9.6284 25.9735 10.0348C26.3799 10.4413 26.9312 10.6696 27.5059 10.6696C28.0808 10.6696 28.6319 10.4413 29.0384 10.0348Z" fill="#222222"/>
</svg>
