<svg width="53" height="39" viewBox="0 0 53 39" fill="none" xmlns="http://www.w3.org/2000/svg">
<path d="M31.4006 19.3957L22.8254 24.2958V14.4956L31.4006 19.3957Z" fill="#222222" stroke="#222222" stroke-width="4" stroke-linecap="round" stroke-linejoin="round"/>
<path d="M2 21.1291V17.662C2 10.5682 2 7.02137 4.2185 4.73922C6.43703 2.45706 9.92977 2.35827 16.9152 2.1607C20.2253 2.06708 23.6066 2 26.5006 2C29.3946 2 32.7759 2.06708 36.086 2.1607C43.0713 2.35827 46.5641 2.45706 48.7827 4.73922C51.0012 7.02137 51.0012 10.5682 51.0012 17.662V21.1291C51.0012 28.2227 51.0012 31.7697 48.7827 34.0517C46.5641 36.3339 43.0716 36.4327 36.0862 36.6304C32.7759 36.724 29.3946 36.7911 26.5006 36.7911C23.6066 36.7911 20.2252 36.724 16.915 36.6304C9.92964 36.4327 6.43699 36.3339 4.21848 34.0517C2 31.7697 2 28.2227 2 21.1291Z" stroke="#222222" stroke-width="4"/>
</svg>
